<svg xmlns="http://www.w3.org/2000/svg" viewBox="0 0 394.33 394.33"><defs><style>.cls-1{fill:#302b30;}.cls-2{fill:#d8d8d8;}.cls-3{fill:#f2f2f3;}.cls-4,.cls-7{fill:#fff;}.cls-5{fill:#f05252;}.cls-5,.cls-6{opacity:0.95;}.cls-6{fill:#6198d0;}.cls-7{font-size:24px;font-family:Roboto-Bold, Roboto;font-weight:700;letter-spacing:0em;}</style></defs><g id="BG"><rect class="cls-1" width="394.33" height="394.33"/></g><g id="Frames"><path class="cls-2" d="M123.81,188l4.15-5.36,15,11.21a20.6,20.6,0,0,1,6.1,7.24c1.74,3.48,1.54,10.62,1.49,15.5-.1,8.89-3.56,19.55-3.56,19.55s-4.78,3.1-5.84-4.86l3.25-14.71s3.35-9.61-3.37-15.3S123.81,188,123.81,188Z"/><path class="cls-3" d="M59.24,135.42l68.37,47c.83.57,0,4.41-.5,5.27h0a1.89,1.89,0,0,1-2.67.59L55.64,141.9a2.28,2.28,0,0,1-1-2.06h0C54.78,138.1,57.79,134.43,59.24,135.42Z"/><path class="cls-2" d="M330.57,150.12l3.84-4.86,14.27,12.16a20.52,20.52,0,0,1,5.61,7.62c1.51,3.59,1.5,10.49,1.13,15.35-.67,8.87-4.82,19.28-4.82,19.28s-5,2.78-5.52-5.23L349.29,180s4-9.37-2.37-15.48S330.57,150.12,330.57,150.12Z"/><path class="cls-4" d="M267.77,91.43h0A4.84,4.84,0,0,1,262,87.51C259,69.33,243.68,58.74,224.09,63c-21.09,4.61-39.73,24.87-44.25,46.77h0s-9.4-11.32-22.59-8.53c-7.31,1.54-14.49,8.26-18.63,12.78a2.48,2.48,0,0,1-4.26-1.2C131,96.12,117,86.41,99.38,90.27,80.32,94.44,63.51,113,59,133.53a2.51,2.51,0,0,1-1.93,1.94l-.31.06a2.51,2.51,0,0,0-2,2.25v.08a2.49,2.49,0,0,0,3,2.64l.2-.05h0c-1.77,23,13.62,38.35,34.63,34.33s40-26.07,42.29-49.43a2.4,2.4,0,0,1,.48-1.23c1.92-2.53,10.34-12.91,21.22-15.18,12.51-2.61,21.33,6.94,21.33,6.94l1-.21h0c-2.08,24,14.45,39.83,37.19,35.48,22.52-4.3,42.87-26.8,46-50.76a2.51,2.51,0,0,1,2-2.17l.66-.13a2.49,2.49,0,0,1,2.07.51l64.19,52a2.49,2.49,0,0,0,3.58-.46l1.53-2.08a1,1,0,0,0-.17-1.38L269.87,92A2.53,2.53,0,0,0,267.77,91.43ZM92.87,171.57c-19.42,3.73-33.65-10.45-32-31.7S79.54,97.79,99.12,93.53c17.8-3.87,31.53,7.19,32.86,25.29,0,.08,0,.16,0,.24l-.05,6.12a1.93,1.93,0,0,1,0,.24C130.07,147.16,112.51,167.79,92.87,171.57Zm166.2-72.31C257,122,237.77,143.7,216.46,147.8c-21,4-36.3-10.62-34.38-32.77h0l.87-5.69a1.29,1.29,0,0,1,0-.19c4.34-20.07,21.46-38.53,40.79-42.73C245.27,61.74,261.19,76.45,259.07,99.26Z"/></g><g id="Red"><path class="cls-5" d="M259.15,99.26C257,122,237.85,143.7,216.55,147.8c-21,4-36.31-10.62-34.38-32.77s20.48-44,41.69-48.61C245.36,61.74,261.27,76.45,259.15,99.26Z"/></g><g id="Blue"><path class="cls-6" d="M132,125.3c-1.8,21.78-19.4,42.48-39.07,46.27-19.42,3.73-33.65-10.45-32-31.7S79.62,97.79,99.2,93.53C119,89.21,133.83,103.45,132,125.3Z"/></g><g id="Title"><path class="cls-4" d="M70.28,264.82c0-.94.45-1.41,1.34-1.41H90.36a12.39,12.39,0,0,1,4.9,1,12.66,12.66,0,0,1,4,2.65,12.47,12.47,0,0,1,3.64,8.87,11.63,11.63,0,0,1-.87,4.52,11.76,11.76,0,0,1-2.4,3.69,12.8,12.8,0,0,1,2.22,2.07,13.84,13.84,0,0,1,1.7,2.51,13,13,0,0,1,1.11,2.86,12.42,12.42,0,0,1,.39,3.1,13,13,0,0,1-1,5.07A13.93,13.93,0,0,1,101.3,304a12.64,12.64,0,0,1-4.06,2.89,11.88,11.88,0,0,1-5,1.07H71.63a1.48,1.48,0,0,1-1-.32,1.19,1.19,0,0,1-.37-1Zm23.94,11.24a5.57,5.57,0,0,0-.41-2.13A5,5,0,0,0,91,271.1a5.87,5.87,0,0,0-2.21-.4H78.94v10.84h9.72a5.77,5.77,0,0,0,2.22-.42A5.22,5.22,0,0,0,92.64,280a5.36,5.36,0,0,0,1.16-1.74A5.56,5.56,0,0,0,94.22,276.06Zm1.94,18.37a5.74,5.74,0,0,0-.36-2,6.15,6.15,0,0,0-1-1.75,5.67,5.67,0,0,0-1.5-1.3,5.47,5.47,0,0,0-1.89-.71l-1.21-.16a10.36,10.36,0,0,0-1.25-.08h-10V300.6H89c.42,0,.83,0,1.23-.05a9.87,9.87,0,0,0,1.2-.16,4.9,4.9,0,0,0,1.89-.69,5.93,5.93,0,0,0,1.52-1.35,6.3,6.3,0,0,0,1.36-3.92Z"/><path class="cls-4" d="M111.77,264.73a1.39,1.39,0,0,1,.33-.93,1.22,1.22,0,0,1,1-.39H119a1.51,1.51,0,0,1,1,.36,1.19,1.19,0,0,1,.44,1v41.86c0,.88-.46,1.32-1.4,1.32h-5.94a1.17,1.17,0,0,1-1.32-1.32Z"/><path class="cls-4" d="M130.26,264.79a1.35,1.35,0,0,1,.35-1,1.31,1.31,0,0,1,.91-.38H160q1.38,0,1.38,1.44v5.22a1.48,1.48,0,0,1-.36,1,1.25,1.25,0,0,1-1,.43H139v12H147l3.18,0h4.88a1.43,1.43,0,0,1,.93.31,1.27,1.27,0,0,1,.39,1v5.09a1.5,1.5,0,0,1-.35,1,1.14,1.14,0,0,1-.94.44H139v15.31q0,1.26-1.41,1.26h-6.11a1.12,1.12,0,0,1-1.2-1.26Z"/><path class="cls-4" d="M166.6,285.71a22.73,22.73,0,0,1,3.12-11.57,23.36,23.36,0,0,1,3.58-4.64,22.31,22.31,0,0,1,4.63-3.58,23.48,23.48,0,0,1,5.47-2.31,23,23,0,0,1,12.16,0,23.48,23.48,0,0,1,5.47,2.31,22.91,22.91,0,0,1,8.22,8.22,23.55,23.55,0,0,1,2.31,5.48,22.55,22.55,0,0,1,.83,6.12,22.2,22.2,0,0,1-.83,6.08,23.51,23.51,0,0,1-2.31,5.45,22,22,0,0,1-3.58,4.63,22.67,22.67,0,0,1-4.64,3.57,23.42,23.42,0,0,1-5.47,2.29,22.89,22.89,0,0,1-17.66-2.31,23,23,0,0,1-4.63-3.58,22.73,22.73,0,0,1-6.67-16.16Zm8.66-.06a14.64,14.64,0,0,0,1.1,5.66,14.07,14.07,0,0,0,7.49,7.67,14.32,14.32,0,0,0,11.2,0,14.37,14.37,0,0,0,4.51-3.09,14.08,14.08,0,0,0,3-4.58,14.78,14.78,0,0,0-3-15.9,14.39,14.39,0,0,0-4.51-3.1,14.32,14.32,0,0,0-11.2,0,14.24,14.24,0,0,0-4.5,3.1,14.73,14.73,0,0,0-4.09,10.24Z"/><path class="cls-4" d="M253.7,266.65a2.14,2.14,0,0,1,.6.51,1.12,1.12,0,0,1,.24.72,1.54,1.54,0,0,1-.18.69l-2.9,4.94a1.4,1.4,0,0,1-1.08.69,1.41,1.41,0,0,1-.42-.07,2.1,2.1,0,0,1-.48-.23,15.92,15.92,0,0,0-4-2.1,14,14,0,0,0-4.58-.74,13.36,13.36,0,0,0-5.6,1.15,13.77,13.77,0,0,0-4.41,3.13A14.26,14.26,0,0,0,228,280a15.71,15.71,0,0,0-1,5.73,15.43,15.43,0,0,0,1,5.67,14.22,14.22,0,0,0,2.89,4.63,13.49,13.49,0,0,0,10,4.26,14.26,14.26,0,0,0,4.63-.75,15.2,15.2,0,0,0,4.06-2.1,1.31,1.31,0,0,1,.49-.24l.44-.09a1.46,1.46,0,0,1,1.05.66l3,5a1.49,1.49,0,0,1,.18.66,1,1,0,0,1-.25.69,4.25,4.25,0,0,1-.59.51,23.71,23.71,0,0,1-6.06,2.92,22.46,22.46,0,0,1-6.85,1,22.72,22.72,0,0,1-16.19-6.7,23.51,23.51,0,0,1-3.59-4.61,23.13,23.13,0,0,1-2.3-17.65,22.89,22.89,0,0,1,5.89-10.14,22.25,22.25,0,0,1,4.62-3.58,23.48,23.48,0,0,1,5.47-2.31,23.27,23.27,0,0,1,12.87.18A23,23,0,0,1,253.7,266.65Z"/><path class="cls-4" d="M259.61,306.8a8.05,8.05,0,0,1,.34-1.11c.13-.34.24-.65.34-.93l16.15-40.21a1.79,1.79,0,0,1,.5-.73,1.47,1.47,0,0,1,1.09-.41h4.83a1.31,1.31,0,0,1,1,.36,3.76,3.76,0,0,1,.46.63l1,2.34,15.82,39.58a1.87,1.87,0,0,0,0,.31,2,2,0,0,1,0,.38q0,.9-1.32.9H294a1.67,1.67,0,0,1-1-.27,2,2,0,0,1-.6-.84l-.54-1.38c-.38-1-.76-1.92-1.13-2.88s-.75-1.92-1.11-2.9H271.14c-.52,1.4-1,2.71-1.51,3.94s-.91,2.3-1.25,3.22a1.55,1.55,0,0,1-1.55,1.11h-6a1.73,1.73,0,0,1-.91-.21.69.69,0,0,1-.35-.63A.64.64,0,0,1,259.61,306.8Zm20.85-32c-1.08,2.76-2.15,5.61-3.22,8.57s-2.15,5.8-3.22,8.54h12.76Z"/><path class="cls-4" d="M307.69,264.73a1.29,1.29,0,0,1,1.38-1.32H315a1.4,1.4,0,0,1,.94.35,1.2,1.2,0,0,1,.4,1v35h18.76a1.29,1.29,0,0,1,.93.37,1.34,1.34,0,0,1,.39,1v5.48a1.37,1.37,0,0,1-.36.94,1.22,1.22,0,0,1-1,.41H309a1.17,1.17,0,0,1-1.32-1.32Z"/><text class="cls-7" transform="translate(124.99 373.6)">Coming 2021</text></g></svg>