<?xml version="1.0" encoding="utf-8"?>
<!-- Generator: Adobe Illustrator 25.0.0, SVG Export Plug-In . SVG Version: 6.00 Build 0)  -->
<svg version="1.1" id="Layer_1" xmlns="http://www.w3.org/2000/svg" xmlns:xlink="http://www.w3.org/1999/xlink" x="0px" y="0px"
	 viewBox="0 0 394.3 394.3" style="enable-background:new 0 0 394.3 394.3;" xml:space="preserve">
<style type="text/css">
	.st0{fill:#302B30;}
	.st1{fill:#D8D8D8;}
	.st2{fill:#F2F2F3;}
	.st3{fill:#FFFFFF;}
	.st4{opacity:0.95;fill:#F05252;enable-background:new    ;}
	.st5{opacity:0.95;fill:#6198D0;enable-background:new    ;}
	.st6{enable-background:new    ;}
</style>
<g id="BG">
	<rect class="st0" width="394.3" height="394.3"/>
</g>
<g id="Frames">
	<path class="st1" d="M123.8,188l4.2-5.4l15,11.2c2.6,1.9,4.7,4.4,6.1,7.2c1.7,3.5,1.5,10.6,1.5,15.5c-0.1,8.9-3.6,19.6-3.6,19.6
		s-4.8,3.1-5.8-4.9l3.2-14.7c0,0,3.4-9.6-3.4-15.3S123.8,188,123.8,188z"/>
	<path class="st2" d="M59.2,135.4l68.4,47c0.8,0.6,0,4.4-0.5,5.3l0,0c-0.5,0.9-1.7,1.2-2.6,0.6c0,0,0,0-0.1,0l-68.8-46.4
		c-0.7-0.5-1.1-1.2-1-2.1l0,0C54.8,138.1,57.8,134.4,59.2,135.4z"/>
	<path class="st1" d="M330.6,150.1l3.8-4.9l14.3,12.2c2.4,2.1,4.4,4.7,5.6,7.6c1.5,3.6,1.5,10.5,1.1,15.4
		c-0.7,8.9-4.8,19.3-4.8,19.3s-5,2.8-5.5-5.2l4.2-14.4c0,0,4-9.4-2.4-15.5S330.6,150.1,330.6,150.1z"/>
	<path class="st3" d="M267.8,91.4L267.8,91.4c-2.6,0.6-5.2-1.1-5.7-3.7c0-0.1,0-0.1,0-0.2c-3-18.2-18.3-28.8-37.9-24.5
		c-21.1,4.6-39.7,24.9-44.2,46.8l0,0c0,0-9.4-11.3-22.6-8.5c-7.3,1.5-14.5,8.3-18.6,12.8c-0.9,1-2.5,1.1-3.5,0.1
		c-0.4-0.4-0.7-0.8-0.8-1.3c-3.4-16.7-17.4-26.4-35-22.6C80.3,94.4,63.5,113,59,133.5c-0.2,1-1,1.7-1.9,1.9l-0.3,0.1
		c-1.1,0.2-1.9,1.1-2,2.2v0.1c-0.1,1.4,0.9,2.6,2.3,2.7c0.2,0,0.5,0,0.7,0l0.2-0.1l0,0c-1.8,23,13.6,38.3,34.6,34.3
		s40-26.1,42.3-49.4c0-0.4,0.2-0.9,0.5-1.2c1.9-2.5,10.3-12.9,21.2-15.2c12.5-2.6,21.3,6.9,21.3,6.9l1-0.2l0,0
		c-2.1,24,14.4,39.8,37.2,35.5c22.5-4.3,42.9-26.8,46-50.8c0.1-1.1,0.9-2,2-2.2l0.7-0.1c0.7-0.1,1.5,0,2.1,0.5l64.2,52
		c1.1,0.9,2.6,0.7,3.5-0.4c0,0,0.1-0.1,0.1-0.1l1.5-2.1c0.3-0.4,0.2-1-0.2-1.4L269.9,92C269.3,91.5,268.5,91.3,267.8,91.4z
		 M92.9,171.6c-19.4,3.7-33.7-10.4-32-31.7s18.7-42.1,38.2-46.3c17.8-3.9,31.5,7.2,32.9,25.3c0,0.1,0,0.2,0,0.2l-0.1,6.1
		c0,0.1,0,0.2,0,0.2C130.1,147.2,112.5,167.8,92.9,171.6z M259.1,99.3c-2.1,22.7-21.3,44.4-42.6,48.5c-21,4-36.3-10.6-34.4-32.8l0,0
		l0.9-5.7c0-0.1,0-0.1,0-0.2c4.3-20.1,21.5-38.5,40.8-42.7C245.3,61.7,261.2,76.4,259.1,99.3z"/>
</g>
<g id="Red">
	<path class="st4" d="M259.1,99.3c-2.1,22.7-21.3,44.4-42.6,48.5c-21,4-36.3-10.6-34.4-32.8s20.5-44,41.7-48.6
		C245.4,61.7,261.3,76.4,259.1,99.3z"/>
</g>
<g id="Blue">
	<path class="st5" d="M132,125.3c-1.8,21.8-19.4,42.5-39.1,46.3c-19.4,3.7-33.7-10.4-32-31.7s18.7-42.1,38.3-46.3
		C119,89.2,133.8,103.4,132,125.3z"/>
</g>
<g id="Title">
	<path class="st3" d="M70.3,264.8c0-0.9,0.4-1.4,1.3-1.4h18.7c1.7,0,3.4,0.3,4.9,1c1.5,0.6,2.8,1.5,4,2.6c2.3,2.4,3.7,5.5,3.6,8.9
		c0,1.5-0.3,3.1-0.9,4.5c-0.6,1.4-1.4,2.6-2.4,3.7c0.8,0.6,1.6,1.3,2.2,2.1c0.7,0.8,1.2,1.6,1.7,2.5c0.5,0.9,0.9,1.9,1.1,2.9
		c0.3,1,0.4,2.1,0.4,3.1c0,1.7-0.3,3.5-1,5.1c-0.6,1.6-1.6,3-2.7,4.2c-1.1,1.2-2.5,2.2-4.1,2.9c-1.6,0.7-3.3,1.1-5,1.1H71.6
		c-0.4,0-0.7-0.1-1-0.3c-0.3-0.3-0.4-0.6-0.4-1L70.3,264.8z M94.2,276.1c0-0.7-0.1-1.5-0.4-2.1c-0.5-1.3-1.5-2.3-2.8-2.8
		c-0.7-0.3-1.5-0.4-2.2-0.4h-9.8v10.8h9.7c0.8,0,1.5-0.1,2.2-0.4c0.7-0.3,1.3-0.6,1.8-1.1c0.5-0.5,0.9-1.1,1.2-1.7
		C94.1,277.6,94.2,276.8,94.2,276.1z M96.2,294.4c0-0.7-0.1-1.4-0.4-2c-0.2-0.6-0.6-1.2-1-1.8c-0.4-0.5-0.9-1-1.5-1.3
		c-0.6-0.4-1.2-0.6-1.9-0.7l-1.2-0.2c-0.4-0.1-0.8-0.1-1.2-0.1H79v12.2h10c0.4,0,0.8,0,1.2,0c0.4,0,0.8-0.1,1.2-0.2
		c0.7-0.1,1.3-0.3,1.9-0.7c0.6-0.4,1.1-0.8,1.5-1.4C95.7,297.2,96.2,295.9,96.2,294.4L96.2,294.4z"/>
	<path class="st3" d="M111.8,264.7c0-0.3,0.1-0.7,0.3-0.9c0.3-0.3,0.6-0.4,1-0.4h5.9c0.4,0,0.7,0.1,1,0.4c0.3,0.2,0.5,0.6,0.4,1
		v41.9c0,0.9-0.5,1.3-1.4,1.3h-5.9c-0.6,0.1-1.2-0.4-1.3-1c0-0.1,0-0.2,0-0.3L111.8,264.7z"/>
	<path class="st3" d="M130.3,264.8c0-0.4,0.1-0.7,0.4-1c0.2-0.2,0.6-0.4,0.9-0.4H160c0.9,0,1.4,0.5,1.4,1.4v5.2c0,0.4-0.1,0.7-0.4,1
		c-0.3,0.3-0.6,0.4-1,0.4h-21v12h8h3.2h4.9c0.3,0,0.7,0.1,0.9,0.3c0.3,0.3,0.4,0.6,0.4,1v5.1c0,0.4-0.1,0.7-0.4,1
		c-0.2,0.3-0.6,0.5-0.9,0.4H139v15.3c0,0.8-0.5,1.3-1.4,1.3h-6.1c-0.6,0-1.2-0.4-1.2-1c0-0.1,0-0.2,0-0.2L130.3,264.8z"/>
	<path class="st3" d="M166.6,285.7c0-4.1,1.1-8.1,3.1-11.6c1-1.7,2.2-3.2,3.6-4.6c1.4-1.4,2.9-2.6,4.6-3.6c1.7-1,3.6-1.8,5.5-2.3
		c4-1.1,8.2-1.1,12.2,0c1.9,0.5,3.8,1.3,5.5,2.3c3.4,2,6.2,4.8,8.2,8.2c1,1.7,1.8,3.6,2.3,5.5c0.6,2,0.8,4.1,0.8,6.1
		c0,2.1-0.3,4.1-0.8,6.1c-0.5,1.9-1.3,3.7-2.3,5.5c-1,1.7-2.2,3.3-3.6,4.6c-1.4,1.4-2.9,2.6-4.6,3.6c-1.7,1-3.6,1.8-5.5,2.3
		c-6,1.6-12.3,0.8-17.7-2.3c-1.7-1-3.2-2.2-4.6-3.6C169,297.6,166.6,291.8,166.6,285.7L166.6,285.7z M175.3,285.6
		c0,1.9,0.4,3.9,1.1,5.7c1.4,3.4,4.1,6.2,7.5,7.7c3.6,1.5,7.6,1.5,11.2,0c1.7-0.7,3.2-1.8,4.5-3.1c1.3-1.3,2.3-2.9,3-4.6
		c2.2-5.4,1.1-11.7-3-15.9c-1.3-1.3-2.8-2.4-4.5-3.1c-3.6-1.5-7.6-1.5-11.2,0c-1.7,0.7-3.2,1.8-4.5,3.1
		C176.7,278.2,175.2,281.8,175.3,285.6L175.3,285.6z"/>
	<path class="st3" d="M253.7,266.6c0.2,0.1,0.4,0.3,0.6,0.5c0.2,0.2,0.2,0.5,0.2,0.7c0,0.2-0.1,0.5-0.2,0.7l-2.9,4.9
		c-0.2,0.4-0.6,0.6-1.1,0.7c-0.1,0-0.3,0-0.4-0.1c-0.2-0.1-0.3-0.1-0.5-0.2c-1.2-0.9-2.6-1.6-4-2.1c-1.5-0.5-3-0.7-4.6-0.7
		c-1.9,0-3.8,0.4-5.6,1.1c-1.7,0.7-3.2,1.8-4.4,3.1c-1.3,1.4-2.2,2.9-2.9,4.7c-0.7,1.8-1,3.8-1,5.7c0,1.9,0.3,3.9,1,5.7
		c0.7,1.7,1.6,3.3,2.9,4.6c2.6,2.8,6.2,4.3,10,4.3c1.6,0,3.1-0.2,4.6-0.8c1.5-0.5,2.8-1.2,4.1-2.1c0.1-0.1,0.3-0.2,0.5-0.2l0.4-0.1
		c0.4,0.1,0.8,0.3,1.1,0.7l3,5c0.1,0.2,0.2,0.4,0.2,0.7c0,0.3-0.1,0.5-0.2,0.7c-0.2,0.2-0.4,0.4-0.6,0.5c-1.9,1.3-3.9,2.2-6.1,2.9
		c-2.2,0.7-4.5,1-6.9,1c-6.1,0-11.9-2.4-16.2-6.7c-1.4-1.4-2.6-2.9-3.6-4.6c-3.1-5.3-3.9-11.7-2.3-17.6c1-3.8,3.1-7.3,5.9-10.1
		c1.4-1.4,2.9-2.6,4.6-3.6c1.7-1,3.6-1.8,5.5-2.3c4.2-1.2,8.7-1.1,12.9,0.2C249.9,264.4,251.9,265.4,253.7,266.6z"/>
	<path class="st3" d="M259.6,306.8c0.1-0.4,0.2-0.7,0.3-1.1c0.1-0.3,0.2-0.6,0.3-0.9l16.1-40.2c0.1-0.3,0.3-0.5,0.5-0.7
		c0.3-0.3,0.7-0.4,1.1-0.4h4.8c0.4,0,0.7,0.1,1,0.4c0.2,0.2,0.3,0.4,0.5,0.6l1,2.3l15.8,39.6c0,0.1,0,0.2,0,0.3c0,0.1,0,0.3,0,0.4
		c0,0.6-0.4,0.9-1.3,0.9H294c-0.4,0-0.7-0.1-1-0.3c-0.3-0.2-0.5-0.5-0.6-0.8l-0.5-1.4c-0.4-1-0.8-1.9-1.1-2.9s-0.8-1.9-1.1-2.9
		h-18.5c-0.5,1.4-1,2.7-1.5,3.9s-0.9,2.3-1.2,3.2c-0.2,0.7-0.8,1.1-1.5,1.1h-6c-0.3,0-0.6-0.1-0.9-0.2c-0.2-0.1-0.4-0.4-0.4-0.6
		C259.6,307,259.6,306.9,259.6,306.8z M280.5,274.8c-1.1,2.8-2.1,5.6-3.2,8.6s-2.1,5.8-3.2,8.5h12.8L280.5,274.8z"/>
	<path class="st3" d="M307.7,264.7c0-0.7,0.5-1.3,1.3-1.3c0,0,0.1,0,0.1,0h5.9c0.3,0,0.7,0.1,0.9,0.4c0.3,0.3,0.4,0.6,0.4,1v35h18.8
		c0.3,0,0.7,0.1,0.9,0.4c0.3,0.3,0.4,0.6,0.4,1v5.5c0,0.3-0.1,0.7-0.4,0.9c-0.3,0.3-0.6,0.4-1,0.4H309c-0.6,0.1-1.2-0.4-1.3-1
		c0-0.1,0-0.2,0-0.3L307.7,264.7z"/>
</g>
<g class="st6">
	<path class="st3" d="M139.9,367.9c-0.1,1.8-0.8,3.3-2,4.3s-2.8,1.6-4.8,1.6c-2.2,0-3.9-0.7-5.2-2.2s-1.9-3.5-1.9-6.1v-1
		c0-1.6,0.3-3.1,0.9-4.3s1.4-2.2,2.5-2.9s2.3-1,3.7-1c2,0,3.6,0.5,4.8,1.6s1.9,2.5,2.1,4.4h-3.5c-0.1-1.1-0.4-1.9-0.9-2.4
		s-1.3-0.7-2.4-0.7c-1.2,0-2,0.4-2.6,1.3s-0.9,2.1-0.9,3.9v1.3c0,1.8,0.3,3.2,0.8,4s1.4,1.3,2.6,1.3c1.1,0,1.9-0.2,2.4-0.7
		s0.8-1.3,0.9-2.3H139.9z"/>
	<path class="st3" d="M141.5,367.1c0-1.3,0.2-2.4,0.7-3.4s1.2-1.7,2.1-2.3s2-0.8,3.2-0.8c1.7,0,3.1,0.5,4.2,1.6s1.7,2.5,1.8,4.3
		l0,0.9c0,1.9-0.5,3.5-1.6,4.7s-2.5,1.8-4.4,1.8s-3.3-0.6-4.4-1.8s-1.6-2.8-1.6-4.8V367.1z M144.9,367.4c0,1.2,0.2,2.1,0.7,2.8
		c0.5,0.6,1.1,1,1.9,1c0.8,0,1.5-0.3,1.9-0.9c0.5-0.6,0.7-1.6,0.7-3c0-1.2-0.2-2.1-0.7-2.7s-1.1-1-1.9-1c-0.8,0-1.5,0.3-1.9,1
		S144.9,366,144.9,367.4z"/>
	<path class="st3" d="M158.7,360.9l0.1,1.4c0.9-1.1,2.1-1.7,3.6-1.7c1.6,0,2.8,0.6,3.4,1.9c0.9-1.3,2.2-1.9,3.8-1.9
		c1.4,0,2.4,0.4,3.1,1.2s1,2,1,3.6v8.1h-3.4v-8.1c0-0.7-0.1-1.2-0.4-1.6s-0.8-0.5-1.5-0.5c-1,0-1.7,0.5-2.1,1.5l0,8.7h-3.4v-8.1
		c0-0.7-0.1-1.3-0.4-1.6s-0.8-0.5-1.5-0.5c-1,0-1.7,0.4-2.1,1.2v9h-3.4v-12.7H158.7z"/>
	<path class="st3" d="M176.3,357.6c0-0.5,0.2-0.9,0.5-1.3s0.8-0.5,1.4-0.5c0.6,0,1,0.2,1.4,0.5s0.5,0.7,0.5,1.3
		c0,0.5-0.2,0.9-0.5,1.3s-0.8,0.5-1.4,0.5s-1-0.2-1.4-0.5S176.3,358.2,176.3,357.6z M179.9,373.6h-3.4v-12.7h3.4V373.6z"/>
	<path class="st3" d="M185.8,360.9l0.1,1.5c0.9-1.1,2.1-1.7,3.6-1.7c1.3,0,2.3,0.4,3,1.2s1,2,1,3.5v8.2h-3.4v-8.1
		c0-0.7-0.2-1.2-0.5-1.6s-0.8-0.5-1.6-0.5c-1,0-1.7,0.4-2.1,1.2v8.9h-3.4v-12.7H185.8z"/>
	<path class="st3" d="M195.7,367.2c0-1.9,0.5-3.5,1.4-4.7s2.2-1.8,3.7-1.8c1.4,0,2.5,0.5,3.2,1.4l0.1-1.2h3.1v12.3
		c0,1.1-0.3,2.1-0.8,2.9s-1.2,1.4-2.1,1.9s-2,0.6-3.2,0.6c-0.9,0-1.8-0.2-2.7-0.6s-1.6-0.8-2-1.4l1.5-2.1c0.8,0.9,1.9,1.4,3.1,1.4
		c0.9,0,1.6-0.2,2.1-0.7s0.8-1.2,0.8-2v-0.7c-0.8,0.9-1.8,1.3-3.1,1.3c-1.5,0-2.8-0.6-3.7-1.8s-1.4-2.8-1.4-4.7V367.2z M199,367.4
		c0,1.2,0.2,2.1,0.7,2.7c0.5,0.7,1.1,1,1.9,1c1,0,1.8-0.4,2.2-1.2v-5.3c-0.5-0.8-1.2-1.2-2.2-1.2c-0.8,0-1.5,0.3-1.9,1
		S199,366.1,199,367.4z"/>
	<path class="st3" d="M227.4,373.6h-11.7v-2.3l5.5-5.9c0.8-0.8,1.3-1.6,1.7-2.2s0.5-1.2,0.5-1.8c0-0.8-0.2-1.4-0.6-1.8
		s-0.9-0.7-1.6-0.7c-0.8,0-1.4,0.3-1.8,0.8s-0.7,1.2-0.7,2.1h-3.4c0-1,0.2-2,0.7-2.8s1.2-1.5,2.1-2s1.9-0.7,3.1-0.7
		c1.8,0,3.1,0.4,4.1,1.3s1.5,2,1.5,3.6c0,0.8-0.2,1.7-0.7,2.6s-1.2,1.9-2.2,3.1l-3.9,4.1h7.3V373.6z"/>
	<path class="st3" d="M240.9,366.5c0,2.4-0.5,4.2-1.5,5.4s-2.4,1.9-4.3,1.9c-1.9,0-3.3-0.6-4.3-1.8s-1.5-3-1.5-5.3v-3.1
		c0-2.4,0.5-4.2,1.5-5.4s2.4-1.9,4.3-1.9s3.3,0.6,4.3,1.8s1.5,3,1.5,5.3V366.5z M237.5,363.1c0-1.4-0.2-2.4-0.6-3.1s-1-1-1.8-1
		c-0.8,0-1.4,0.3-1.8,0.9s-0.6,1.6-0.6,2.9v4.2c0,1.4,0.2,2.4,0.6,3.1s1,1,1.8,1c0.8,0,1.4-0.3,1.8-1c0.4-0.6,0.6-1.6,0.6-3V363.1z"
		/>
	<path class="st3" d="M254.9,373.6h-11.7v-2.3l5.5-5.9c0.8-0.8,1.3-1.6,1.7-2.2s0.5-1.2,0.5-1.8c0-0.8-0.2-1.4-0.6-1.8
		s-0.9-0.7-1.6-0.7c-0.8,0-1.4,0.3-1.8,0.8s-0.7,1.2-0.7,2.1h-3.4c0-1,0.2-2,0.7-2.8s1.2-1.5,2.1-2s1.9-0.7,3.1-0.7
		c1.8,0,3.1,0.4,4.1,1.3s1.5,2,1.5,3.6c0,0.8-0.2,1.7-0.7,2.6s-1.2,1.9-2.2,3.1l-3.9,4.1h7.3V373.6z"/>
	<path class="st3" d="M265.2,373.6h-3.4v-13.1l-4,1.3V359l7.1-2.5h0.4V373.6z"/>
</g>
</svg>
